<?xml version="1.0" encoding="utf-8"?>
<svg viewBox="0 0 500 500" xmlns="http://www.w3.org/2000/svg" xmlns:bx="https://boxy-svg.com">
  <defs>
    <bx:grid x="0" y="0" width="95.861" height="132.973"/>
  </defs>
  <rect x="200" y="264.674" width="100" height="235.326" style="fill: rgb(238, 171, 48);"/>
  <line style="stroke: rgb(0, 0, 0); stroke-width: 9px;" x1="250.53590911758812" y1="264.67401123046875" x2="253.14182019838535" y2="23.30079479607925"/>
  <line style="stroke: rgb(0, 0, 0); stroke-width: 9px;" x1="442.197" y1="63.689" x2="44.822" y2="173.532"/>
  <path style="fill: rgb(216, 216, 216);" transform="matrix(0.322057, 1.088509, -1.088509, 0.322057, 376.159454, -635.69873)" d="M 624.253 163.404 A 50.663 50.663 0 0 1 625.572 62.095 L 625.572 112.758 Z" bx:shape="pie 625.572 112.758 0 50.663 181.492 360 1@ee918675"/>
  <path style="fill: rgb(216, 216, 216);" transform="matrix(-0.339709, -1.083135, 1.083135, -0.339709, 145.255203, 866.061768)" d="M 624.253 163.404 A 50.663 50.663 0 0 1 625.572 62.095 L 625.572 112.758 Z" bx:shape="pie 625.572 112.758 0 50.663 181.492 360 1@ee918675" bx:origin="0.545 0.492"/>
  <line style="stroke: rgb(0, 0, 0); stroke-width: 9px;" x1="444.98" y1="52.69" x2="47.605" y2="162.533" transform="matrix(0.784315, 0.620363, -0.620363, 0.784315, 119.87982, -129.580542)"/>
  <path style="fill: rgb(216, 216, 216);" transform="matrix(-0.422676, 1.053526, -1.053526, -0.422676, 787.721008, -410.539337)" d="M 624.253 163.404 A 50.663 50.663 0 0 1 625.572 62.095 L 625.572 112.758 Z" bx:shape="pie 625.572 112.758 0 50.663 181.492 360 1@ee918675"/>
  <path style="fill: rgb(216, 216, 216);" transform="matrix(0.405497, -1.060262, 1.060262, 0.405497, -299.974243, 627.520935)" d="M 624.253 163.404 A 50.663 50.663 0 0 1 625.572 62.095 L 625.572 112.758 Z" bx:shape="pie 625.572 112.758 0 50.663 181.492 360 1@ee918675" bx:origin="0.545 0.492"/>
  <circle style="fill: rgb(238, 171, 48);" cx="231.983" cy="3.844" r="18.253" transform="matrix(1.079598, 0, 0, 1, 2.987429, 5)"/>
</svg>