<?xml version="1.0" encoding="utf-8"?>
<svg viewBox="0 0 500 500" xmlns="http://www.w3.org/2000/svg">
  <g style="" transform="matrix(1.288833, 0, 0, 1.276183, -2.337241, -16.534271)">
    <rect x="8.092" y="95.929" width="191.908" height="12.629" style="fill: rgb(105, 105, 105);"/>
    <rect x="8.092" y="59.867" width="191.908" height="12.629" style="fill: rgb(105, 105, 105);"/>
    <rect x="8.092" y="77.898" width="191.908" height="12.629" style="fill: rgb(105, 105, 105);"/>
    <rect x="8.092" y="131.991" width="191.908" height="12.629" style="fill: rgb(105, 105, 105);"/>
    <rect x="8.092" y="113.96" width="191.908" height="12.629" style="fill: rgb(105, 105, 105);"/>
    <rect x="8.092" y="150.022" width="191.908" height="12.629" style="fill: rgb(105, 105, 105);"/>
    <rect x="8.092" y="168.053" width="191.908" height="12.629" style="fill: rgb(105, 105, 105);"/>
    <rect x="8.092" y="222.146" width="191.908" height="12.629" style="fill: rgb(105, 105, 105);"/>
    <rect x="8.092" y="186.084" width="191.908" height="12.629" style="fill: rgb(105, 105, 105);"/>
    <rect x="8.092" y="204.115" width="191.908" height="12.629" style="fill: rgb(105, 105, 105);"/>
    <rect x="8.092" y="258.208" width="191.908" height="12.629" style="fill: rgb(105, 105, 105);"/>
    <rect x="8.092" y="240.177" width="191.908" height="12.629" style="fill: rgb(105, 105, 105);"/>
    <rect x="8.092" y="276.239" width="191.908" height="12.629" style="fill: rgb(105, 105, 105);"/>
    <rect x="8.092" y="294.272" width="191.908" height="12.629" style="fill: rgb(105, 105, 105);"/>
  </g>
  <path d="M 258.212 211.489 L 256.552 206.589 C 259.539 205.596 261.682 203.859 262.982 201.379 C 264.282 198.906 264.932 195.842 264.932 192.189 L 264.932 183.679 C 264.932 180.719 265.555 178.132 266.802 175.919 C 268.049 173.706 269.972 172.002 272.572 170.809 C 269.972 169.676 268.049 168.002 266.802 165.789 C 265.555 163.576 264.932 160.962 264.932 157.949 L 264.932 149.399 C 264.932 145.746 264.282 142.666 262.982 140.159 C 261.682 137.659 259.539 135.922 256.552 134.949 L 258.212 130.099 C 263.579 131.619 267.405 134.032 269.692 137.339 C 271.972 140.646 273.112 144.666 273.112 149.399 L 273.112 157.949 C 273.112 161.076 273.819 163.489 275.232 165.189 C 276.639 166.889 278.822 167.739 281.782 167.739 L 281.782 173.839 C 278.822 173.839 276.639 174.706 275.232 176.439 C 273.819 178.166 273.112 180.579 273.112 183.679 L 273.112 192.189 C 273.112 196.889 271.972 200.899 269.692 204.219 C 267.405 207.539 263.579 209.962 258.212 211.489 Z" transform="matrix(1, 0, 0, 1, 0, 0)" style="fill: rgb(238, 171, 48); white-space: pre;"/>
  <path d="M 313.678 198.902 L 294.268 198.902 L 294.268 194.222 L 300.318 193.192 L 300.318 150.622 L 294.268 149.582 L 294.268 144.872 L 300.318 144.872 L 310.078 144.872 L 327.478 185.872 L 327.698 185.872 L 344.548 144.872 L 360.838 144.872 L 360.838 149.582 L 354.788 150.622 L 354.788 193.192 L 360.838 194.222 L 360.838 198.902 L 341.428 198.902 L 341.428 194.222 L 347.818 193.192 L 347.818 177.522 L 347.818 154.852 L 347.628 154.812 L 330.078 196.972 L 325.218 196.972 L 307.068 154.892 L 306.888 154.932 L 307.148 177.522 L 307.148 193.192 L 313.678 194.222 L 313.678 198.902 ZM 382.399 198.902 L 366.929 198.902 L 366.929 194.222 L 370.939 193.672 L 389.819 144.872 L 396.099 144.872 L 414.649 193.672 L 418.619 194.222 L 418.619 198.902 L 403.109 198.902 L 403.109 194.222 L 407.189 193.522 L 403.629 183.572 L 381.989 183.572 L 378.319 193.522 L 382.399 194.222 L 382.399 198.902 Z M 392.349 155.482 L 384.259 177.452 L 401.399 177.452 L 393.459 155.482 L 393.019 154.262 L 392.789 154.262 L 392.349 155.482 ZM 441.847 198.902 L 424.187 198.902 L 424.187 194.222 L 428.857 193.412 L 445.597 171.482 L 430.087 150.402 L 425.377 149.582 L 425.377 144.872 L 442.887 144.872 L 442.887 149.582 L 437.807 150.062 L 449.757 166.732 L 461.107 150.062 L 455.917 149.582 L 455.917 144.872 L 473.537 144.872 L 473.537 149.582 L 468.607 150.402 L 453.947 171.482 L 470.197 193.412 L 474.987 194.222 L 474.987 198.902 L 457.247 198.902 L 457.247 194.222 L 462.487 193.742 L 449.677 176.192 L 436.917 193.742 L 441.847 194.222 L 441.847 198.902 Z" transform="matrix(1, 0, 0, 1, 0, 0)" style="fill: rgb(238, 171, 48); white-space: pre;"/>
</svg>