<?xml version="1.0" encoding="UTF-8"?>
<svg width="21px" height="24px" viewBox="0 0 21 24" version="1.1" xmlns="http://www.w3.org/2000/svg" xmlns:xlink="http://www.w3.org/1999/xlink">
    <!-- Generator: Sketch 58 (84663) - https://sketch.com -->
    <title>Fill 2</title>
    <desc>Created with Sketch.</desc>
    <g id="Page-1" stroke="none" stroke-width="1" fill="none" fill-rule="evenodd">
        <g id="Signavio-Logo-RGB" transform="translate(-6.000000, -6.000000)" fill="#981E57">
            <path d="M26.304,17.448 C26.228,17.312 26.07,17.2 25.873,17.182 C25.776,17.172 24.954,17.13 24.208,17.115 C24.045,17.111 23.605,17.107 23.364,17.109 C23.324,17.109 23.293,17.111 23.263,17.094 C23.243,17.081 23.214,17.061 23.198,17.015 C23.12,16.791 22.971,16.287 22.774,15.923 C22.6,15.6 22.383,15.307 22.225,15 C22.066,14.694 21.934,14.459 21.92,14.363 C21.907,14.268 22.609,14.584 22.672,14.613 C22.728,14.641 22.916,14.701 23.007,14.702 C23.099,14.703 23.17,14.689 23.357,14.537 C23.564,14.368 23.59,14.156 23.571,13.977 C23.559,13.844 23.425,13.65 23.302,13.472 C23.178,13.301 23.051,13.113 22.996,12.953 C22.863,12.582 22.778,12.206 22.52,11.711 C22.339,11.373 21.914,11.131 21.686,11.01 C21.32,10.816 20.972,10.709 20.972,10.709 C20.573,8.984 19.984,8.255 18.493,7.836 C17.127,7.449 16.405,7.23 15.809,6.674 C15.712,6.584 15.621,6.562 15.556,6.6 C15.476,6.645 15.483,6.744 15.531,6.836 C15.885,7.521 16.819,8.086 18.097,8.551 C19.047,8.896 19.576,9.441 19.696,10.269 C19.432,10.269 19.126,10.116 19.056,10.1 C18.957,10.078 18.911,10.074 18.871,10.109 C18.855,10.123 18.821,10.158 18.841,10.244 C18.859,10.332 18.945,10.762 19.133,11.113 C19.321,11.467 19.376,11.56 19.441,11.656 C19.402,11.898 19.275,12.853 19.284,13.751 C19.292,14.648 19.262,16.012 19.205,16.217 C19.205,16.217 19.065,16.352 18.733,16.644 C18.402,16.937 16.509,18.325 15.705,18.81 C15.005,19.232 12.925,20.418 11.307,20.858 C10.671,21.029 10.567,21.035 10.546,21.137 C10.534,21.197 10.576,21.248 10.683,21.289 C10.82,21.342 11.653,21.644 11.647,21.795 C11.631,22.195 11.283,22.605 11.068,23.254 C10.959,23.621 10.575,23.949 10.182,24.197 C9.987,24.318 9.792,24.424 9.636,24.512 C9.476,24.607 9.367,24.652 9.274,24.768 C9.108,25.021 9.055,25.326 8.727,25.643 C8.358,26 8,26.418 7.731,26.701 C7.428,27.029 7.082,27.773 6.846,28 C6.735,28.111 6.568,28.199 6.473,28.234 C6.377,28.269 6.16,28.299 6.115,28.432 C6.069,28.564 5.957,28.81 6.029,29.131 C6.067,29.301 6.196,29.35 6.331,29.355 C6.408,29.359 6.469,29.32 6.531,29.287 C6.594,29.248 7.042,28.926 7.412,28.512 C8.282,27.529 9.208,26.176 9.931,25.658 C10.688,25.109 12.841,24.348 13.798,23.725 C14.281,23.408 14.803,22.914 15.227,22.49 C15.439,22.279 15.626,22.084 15.765,21.945 C15.836,21.875 15.895,21.816 15.937,21.777 C15.955,21.762 15.97,21.748 15.981,21.738 C16.275,21.697 18.435,21.605 20.449,20.898 C21.358,20.58 21.957,20.06 22.365,19.606 C22.673,19.255 23.07,18.643 23.139,18.615 C23.177,18.6 23.37,18.559 23.42,18.549 C23.894,18.461 24.293,18.463 24.613,18.463 C24.684,18.463 24.707,18.465 24.733,18.465 C24.733,18.465 24.319,19.09 24.144,19.318 C23.968,19.548 23.722,19.744 23.535,19.87 C23.348,19.998 23.134,20.096 23.023,20.287 C22.911,20.479 22.75,20.707 22.373,20.877 C21.813,21.133 21.712,21.307 21.738,21.473 C21.762,21.639 21.914,22.055 22.081,22.066 C22.188,22.076 22.365,21.986 22.555,21.873 C23.102,21.525 24.42,20.292 24.921,19.775 C25.423,19.258 26.097,18.266 26.327,17.904 C26.38,17.822 26.38,17.584 26.304,17.448" id="Fill-2"></path>
        </g>
    </g>
</svg>