<?xml version="1.0" encoding="utf-8"?>
<svg viewBox="0 0 500 500" xmlns="http://www.w3.org/2000/svg" xmlns:bx="https://boxy-svg.com">
  <line style="stroke-width: 5px; stroke: rgb(126, 126, 126);" x1="343.096" y1="30.052" x2="342.959" y2="459.989"/>
  <line style="stroke-width: 3px; stroke: rgb(121, 121, 121);" x1="342.959" y1="125.678" x2="408.703" y2="125.678"/>
  <line style="stroke: rgb(125, 125, 125); stroke-width: 3px;" x1="343.096" y1="206.81" x2="408.703" y2="206.81"/>
  <rect x="317.958" width="61.409" height="57.925" style="fill: rgb(238, 171, 48);"/>
  <rect x="377.182" y="93.712" width="61.409" height="57.925" style="fill: rgb(238, 171, 48);" bx:origin="0.641 1.457"/>
  <line style="stroke-width: 3px; stroke: rgb(126, 126, 126);" x1="408.703" y1="227.579" x2="408.703" y2="372.21"/>
  <rect x="379.367" y="176.11" width="61.409" height="57.925" style="fill: rgb(238, 171, 48);" bx:origin="0.641 1.457"/>
  <line style="stroke: rgb(114, 114, 114); stroke-width: 3px;" x1="408.703" y1="300.28" x2="449.134" y2="298.901"/>
  <rect x="438.591" y="267.975" width="61.409" height="57.925" style="fill: rgb(238, 171, 48);" bx:origin="0.641 1.457"/>
  <line style="stroke-width: 3px; stroke: rgb(118, 118, 118);" x1="408.703" y1="372.21" x2="458.924" y2="372.21"/>
  <rect x="438.591" y="339.285" width="61.409" height="57.925" style="fill: rgb(238, 171, 48);" bx:origin="0.641 1.457"/>
  <line style="stroke: rgb(0, 0, 0);" x1="85.21633911132811" y1="300" x2="85.21633911132811" y2="300"/>
  <line style="stroke-width: 3px; stroke: rgb(113, 113, 113);" x1="343.096" y1="459.989" x2="387.966" y2="459.989"/>
  <rect x="379.367" y="424.586" width="61.409" height="57.925" style="fill: rgb(238, 171, 48);" bx:origin="0.641 1.457"/>
  <line style="stroke-width: 5px; stroke: rgb(126, 126, 126);" x1="50.209" y1="42.052" x2="50.088" y2="471.989"/>
  <line style="stroke-width: 3px; stroke: rgb(121, 121, 121);" x1="50.088" y1="137.678" x2="108.548" y2="137.678"/>
  <line style="stroke: rgb(125, 125, 125); stroke-width: 3px;" x1="50.209" y1="218.81" x2="108.548" y2="218.81"/>
  <line style="stroke-width: 3px; stroke: rgb(126, 126, 126);" x1="108.548" y1="239.579" x2="108.548" y2="384.21"/>
  <line style="stroke: rgb(114, 114, 114); stroke-width: 3px;" x1="108.548" y1="312.28" x2="144.5" y2="310.901"/>
  <line style="stroke-width: 3px; stroke: rgb(118, 118, 118);" x1="108.548" y1="384.21" x2="153.205" y2="384.21"/>
  <line style="stroke-width: 3px; stroke: rgb(113, 113, 113);" x1="50.209" y1="471.989" x2="90.108" y2="471.989"/>
  <circle style="fill: rgb(148, 148, 148);" cx="60.58" cy="18.505" r="39.42" transform="matrix(0.798218, 0, 0, 0.734716, 2.640673, 15.36657)"/>
  <circle style="fill: rgb(148, 148, 148);" cx="60.58" cy="18.505" r="39.42" transform="matrix(0.798218, 0, 0, 0.734716, 64.179924, 119.096428)"/>
  <circle style="fill: rgb(148, 148, 148);" cx="60.58" cy="18.505" r="39.42" transform="matrix(0.798218, 0, 0, 0.734716, 119.997078, 293.754944)"/>
  <circle style="fill: rgb(148, 148, 148);" cx="60.58" cy="18.505" r="39.42" transform="matrix(0.798218, 0, 0, 0.734716, 64.340446, 206.366577)"/>
  <circle style="fill: rgb(148, 148, 148);" cx="60.58" cy="18.505" r="39.42" transform="matrix(0.798218, 0, 0, 0.734716, 120.178162, 369.4534)"/>
  <circle style="fill: rgb(148, 148, 148);" cx="60.58" cy="18.505" r="39.42" transform="matrix(0.798218, 0, 0, 0.734716, 64.179924, 457.441589)"/>
  <path d="M 200 219.475 H 282.958 L 282.958 207.975 L 317.958 237.975 L 282.958 267.975 L 282.958 256.475 H 200 V 219.475 Z" style="fill: rgb(238, 171, 48);" bx:shape="arrow 200 207.975 117.958 60 37 35 0 1@301662d5"/>
</svg>